<?xml version="1.0" standalone="no"?>
<!DOCTYPE svg PUBLIC "-//W3C//DTD SVG 20010904//EN"
 "http://www.w3.org/TR/2001/REC-SVG-20010904/DTD/svg10.dtd">
<svg version="1.0" xmlns="http://www.w3.org/2000/svg"
 width="1066.000000pt" height="1066.000000pt" viewBox="0 0 1066.000000 1066.000000"
 preserveAspectRatio="xMidYMid meet">

<g transform="translate(0.000000,1066.000000) scale(0.100000,-0.100000)"
fill="#4D2FAA" stroke="none">
<path d="M3230 7833 c0 -174 2 -191 21 -223 22 -36 238 -380 819 -1305 612
-974 1208 -1923 1865 -2970 252 -401 466 -742 477 -757 l19 -28 500 0 499 0 0
172 0 172 -129 205 c-70 113 -205 328 -298 476 -93 149 -276 439 -405 645
-130 206 -351 560 -493 785 -142 226 -362 577 -490 780 -128 204 -310 494
-405 645 -95 151 -335 534 -533 850 -198 316 -384 612 -413 658 l-54 82 -490
0 -490 0 0 -187z"/>
<path d="M5639 7998 c5 -13 152 -376 326 -808 175 -432 470 -1163 657 -1625
187 -462 370 -916 408 -1010 38 -93 136 -336 219 -540 197 -488 188 -471 186
-367 0 31 -2 1028 -3 2215 l-2 2157 -900 0 -900 0 9 -22z"/>
<path d="M3224 6551 c3 -250 6 -1253 6 -2229 l0 -1775 890 5 c489 2 893 7 896
11 7 7 -21 78 -769 1927 -201 498 -511 1263 -687 1700 -177 437 -326 800 -332
805 -7 7 -9 -126 -4 -444z"/>
</g>
</svg>
